<?xml version="1.0" encoding="UTF-8" standalone="no"?>
<!-- Created with Inkscape (http://www.inkscape.org/) -->

<svg
   version="1.1"
   id="svg1"
   viewBox="0 0 300 292.74219"
   sodipodi:docname="dgra-green.svg"
   inkscape:version="1.1.2 (0a00cf5339, 2022-02-04)"
   width="300"
   height="292.74219"
   xmlns:inkscape="http://www.inkscape.org/namespaces/inkscape"
   xmlns:sodipodi="http://sodipodi.sourceforge.net/DTD/sodipodi-0.dtd"
   xmlns="http://www.w3.org/2000/svg"
   xmlns:svg="http://www.w3.org/2000/svg">
  <defs
     id="defs1" />
  <sodipodi:namedview
     id="namedview1"
     pagecolor="#ffffff"
     bordercolor="#000000"
     borderopacity="0.25"
     inkscape:showpageshadow="2"
     inkscape:pageopacity="0.0"
     inkscape:pagecheckerboard="true"
     inkscape:deskcolor="#d1d1d1"
     inkscape:zoom="0.94873047"
     inkscape:cx="-67.458569"
     inkscape:cy="284.59084"
     inkscape:window-width="1880"
     inkscape:window-height="1051"
     inkscape:window-x="0"
     inkscape:window-y="0"
     inkscape:window-maximized="1"
     inkscape:current-layer="g1"
     inkscape:pageshadow="2"
     showgrid="false"
     fit-margin-top="0"
     fit-margin-left="0"
     fit-margin-right="0"
     fit-margin-bottom="0" />
  <g
     inkscape:groupmode="layer"
     inkscape:label="Image"
     id="g1"
     transform="translate(-57.774733,-116.48437)">
    <path
       id="path14"
       d="m 224.64113,116.48438 c -31.97707,0 -61.23373,11.6616 -83.80675,30.92823 1.47357,1.9287 2.93046,3.86951 4.36764,5.82519 21.33461,-18.3398 49.07189,-29.44428 79.43911,-29.44428 15.94945,0 31.16329,3.08829 45.12111,8.64748 0.98452,0.0112 1.96966,0.0194 2.95149,0.0935 8.10763,0.56301 15.98326,3.5724 22.542,8.34485 3.55326,2.5467 6.64466,5.68041 9.42408,9.04149 1.90236,2.33651 3.77715,4.70669 5.40834,7.24348 0.73881,1.08946 1.27126,2.30566 2.06426,3.35978 0.59336,0.74478 1.20273,1.47852 1.81301,2.21058 0.92441,0.99471 1.82411,2.0112 2.71523,3.03644 0.18005,0.18675 0.34311,0.38912 0.52678,0.57245 1.96225,1.70365 4.02075,3.29507 6.09214,4.86372 2.89768,2.18853 5.88422,4.31903 9.20781,5.81734 0.66915,0.30403 1.35622,0.56311 2.0564,0.78016 -22.78879,-36.78611 -63.50348,-61.32042 -109.92265,-61.32042 z m 117.97199,76.51972 c -1.86464,0.37375 -3.74633,0.65247 -5.65031,0.69665 -0.68333,0.0209 -1.36503,-0.0167 -2.04713,-0.0478 7.46042,15.7879 11.64823,33.43013 11.64823,52.06337 0,8.68141 -0.92071,17.144 -2.64242,25.31004 0.8969,1.66351 1.75295,3.34852 2.57105,5.05002 0.82904,1.73104 1.60555,3.48643 2.36334,5.24917 3.2431,-11.31803 5.01718,-23.25446 5.01718,-35.60923 0,-18.77779 -4.04577,-36.6069 -11.25994,-52.71221 z m -245.471558,31.687 c -1.12242,6.84607 -1.732354,13.8634 -1.732354,21.02521 0,4.30044 0.22122,8.54937 0.632417,12.74245 2.371148,-0.91147 4.744035,-1.81799 7.119985,-2.71665 -0.26915,-3.30957 -0.44326,-6.6464 -0.44326,-10.0258 0,-5.30637 0.37593,-10.52151 1.03213,-15.64829 -0.88344,-1.10222 -1.46694,-2.4453 -1.52178,-3.86371 -1.7256,-0.2776 -3.420827,-0.76182 -5.017907,-1.47467 -0.02391,-0.011 -0.04534,-0.0273 -0.06926,-0.0386 z m 22.087308,92.59555 c -0.4076,0.45157 -0.85167,0.86814 -1.30265,1.27626 6.29046,9.19293 13.74934,17.5151 22.14227,24.79254 1.48941,-1.91367 3.0919,-3.72788 4.79449,-5.45472 -6.49328,-5.62332 -12.39987,-11.90282 -17.58263,-18.76752 -0.66456,0.1982 -1.34279,0.34663 -2.04213,0.38117 -2.20121,0.14641 -4.42497,-0.7009 -6.00935,-2.22773 z m 90.75686,49.44664 c -0.10327,0.0509 -0.21981,0.10613 -0.31478,0.15275 -3.25249,1.63069 -6.34484,3.5714 -9.2542,5.75809 2.33435,0.44358 4.69174,0.8182 7.06859,1.1342 1.4503,-2.43329 3.20962,-4.67815 5.16851,-6.73098 -0.89482,-0.0872 -1.7791,-0.20766 -2.66812,-0.31406 z"
       sodipodi:nodetypes="sccsccccccccccccscccscccsccsccsccccccccccccccccc"
       style="fill:#316b29;fill-opacity:1;stroke-width:0.365457" />
    <path
       id="path12"
       style="fill:#316b29;fill-opacity:1;stroke-width:0.398176"
       d="m 59.815387,130.11089 c -1.413296,0.18448 -2.040654,1.28623 -2.040654,3.21808 0,7.21508 5.354426,12.09036 29.066877,26.46862 2.080475,1.26152 5.484883,3.3539 7.565358,4.64902 2.080465,1.29512 6.380772,3.96778 9.556222,5.93921 10.70224,6.64431 19.82387,12.85285 18.88384,12.85285 -1.58078,0 -25.815311,-13.92641 -45.760739,-26.29597 -9.206598,-5.70966 -16.802107,-8.55811 -17.934273,-6.72623 -1.753056,2.8365 2.510406,9.55242 8.843873,13.93073 2.987491,2.06526 5.60607,3.28999 21.234778,9.93575 23.745191,10.0971 27.880751,11.94119 34.080641,15.19758 5.40762,2.84026 5.62045,3.09315 1.25751,1.49161 -1.80672,-0.66322 -5.5247,-2.01357 -8.26215,-3.0011 -2.73747,-0.98753 -7.93367,-3.02259 -11.54712,-4.52226 -3.61345,-1.49968 -8.809648,-3.62291 -11.547116,-4.71824 -2.737464,-1.09532 -7.664897,-3.15059 -10.949852,-4.56658 -15.54797,-6.70201 -21.008361,-6.72791 -17.134806,-0.0825 4.059753,6.96491 8.744469,8.83507 43.016264,17.17758 6.93094,1.68713 22.92931,6.83536 21.39032,6.88331 -2.18975,0.0682 -19.89513,-3.85134 -41.497442,-9.18683 -3.351443,-0.80547 -14.057722,-4.62099 -16.795735,-0.83834 1.124559,6.86057 14.804034,10.51665 20.378545,10.83164 2.518465,0.22424 7.558251,0.47525 11.148942,0.99233 4.52874,0.65217 19.24264,3.07357 25.03923,3.82234 5.275,0.68138 -4.36912,0.16302 -27.15765,-1.4605 -15.80818,-1.12622 -20.163735,-0.16158 -16.374233,3.62791 4.488047,4.48805 9.52294,5.50918 21.789273,4.41805 8.68672,-0.7727 25.80011,-1.01418 26.56661,-1.01099 1.08744,0.005 1.2484,0.091 0.73414,0.39117 -0.89928,0.52496 -0.96466,0.0736 -5.91044,0.9379 -1.86147,0.32528 -6.52014,0.88089 -10.35258,1.23419 -19.406818,1.78899 -23.940653,3.32263 -19.446101,6.57846 3.543991,2.56725 9.105581,3.09995 15.066151,1.44417 1.86149,-0.5171 5.08671,-1.41522 7.16718,-1.99632 2.08048,-0.5811 6.17493,-1.50269 9.09895,-2.04766 2.92403,-0.54497 5.79091,-1.08052 6.37083,-1.18987 2.58606,-0.48758 -3.84928,2.01097 -13.32569,5.17397 -15.48214,5.16756 -17.00563,6.46344 -9.87509,8.39359 4.46069,1.20745 5.40496,0.93321 21.77294,-6.32183 3.23379,-1.43336 5.78307,-2.44997 5.66469,-2.25841 -0.38577,0.62417 -9.45228,6.18327 -13.60333,8.34071 -6.77073,3.51899 -8.156,5.10605 -5.44537,6.23862 4.52543,1.89084 9.86401,-0.0246 18.45454,-6.6228 0.85314,-0.65528 1.3935,-1.07081 3.7749,-2.58582 -1.66651,1.99837 -3.36672,3.97183 -5.43759,5.57448 -8.09628,6.58164 -8.18174,6.67632 -6.88721,7.6229 2.41541,1.76619 8.85522,-0.65474 13.51621,-5.08064 2.31717,-2.2003 1.5855,-1.9845 -0.31729,1.51182 -9.2027,16.90968 -13.79472,16.28749 -29.92234,23.44187 -3.00185,1.33165 -6.92919,2.63645 -8.57168,3.28184 -1.64247,0.6454 -5.226064,2.02783 -7.963521,3.07187 -12.720386,4.85141 -15.490894,6.23357 -18.521426,9.23738 -3.993047,3.95782 -2.345156,6.31082 4.386162,6.26428 5.216729,-0.0361 8.780941,-1.49295 21.004585,-8.58801 5.13431,-2.98016 18.28831,-9.90464 18.81539,-9.90464 0.18201,0 -1.75471,1.424 -4.30451,3.16519 -2.5498,1.74118 -5.1337,3.51657 -5.74167,3.94522 -3.507,2.4726 -12.69861,8.22132 -18.092917,11.31536 -12.749241,7.31266 -16.994314,13.6129 -10.372808,15.39589 5.671266,1.52711 11.740243,-2.19582 26.962455,-16.54299 5.03336,-4.74402 12.98,-11.45628 11.71354,-9.89375 -3.37906,4.16902 -12.299,13.66524 -20.3521,21.66718 -11.80619,11.73118 -13.993097,15.42843 -11.723652,19.81705 3.136985,6.06627 11.283322,-0.71533 24.744482,-20.59863 2.59461,-3.83245 6.11897,-8.81797 7.8321,-11.07895 1.0662,-1.41927 2.43959,-3.54715 3.34095,-4.75556 0.6176,0.6176 -9.69548,18.39278 -14.96272,25.78892 -6.52654,9.16442 -7.86456,13.66808 -4.9321,16.60054 v 7.2e-4 c 1.07518,1.0752 1.67018,1.12903 3.59059,0.32664 4.55413,-1.90284 7.09931,-5.66164 13.48278,-19.91427 5.39879,-12.05413 7.93802,-17.41974 8.06463,-17.03992 0.3855,1.15652 -4.10976,13.65261 -8.4216,23.41075 -4.32137,9.7797 0.8894,15.06346 6.38483,6.47425 3.08991,-4.82945 6.91011,-23.66272 7.44325,-23.66272 0.57838,0 0.48936,0.92986 -0.93167,9.68222 -1.20801,7.44035 -0.79048,9.72226 1.77236,9.68299 4.03879,-0.0619 5.83999,-7.06098 7.03885,-27.35674 l 0.49928,-8.45658 1.2233,-0.1672 c 25.59801,-3.50319 40.37644,-14.10251 45.79651,-32.84488 1.86724,-6.44874 1.77594,-12.94197 0.63148,-19.55653 -3.37904,-21.08349 2.77491,-26.14583 41.39868,-34.05341 20.68948,-4.23584 15.30341,-5.58494 -9.35714,-2.34396 -4.16094,0.54684 -8.37167,1.0863 -9.35715,1.1992 -3.31219,0.37946 -4.82389,0.78341 -9.17906,1.15175 l -3.00654,0.25431 -2.9031,-2.6037 c -13.12038,-11.7648 -31.53353,-4.08328 -36.90598,15.39666 -0.5579,2.02291 -1.3765,4.72533 -1.81979,6.00532 l -0.80647,2.32762 3.31996,3.46538 c 1.82605,1.90596 4.39316,4.62108 5.70434,6.03408 l 2.38439,2.56948 0.32119,-4.57903 c 0.87041,-12.39937 4.04528,-19.1804 10.4599,-22.33831 l 2.55704,-1.25831 c 1.55704,0.17616 2.15278,1.05653 3.99499,0.74969 1.84221,-0.30683 2.78646,-2.22185 2.78646,-2.22185 2.49051,-1.30279 2.67567,-1.08809 4.81155,0.002 2.53302,1.29225 2.42534,1.58887 -2.17674,5.98276 -7.32402,6.99266 -8.61342,11.72188 -6.5847,24.15266 0.74112,4.54107 0.78374,5.60767 0.39818,9.96997 -1.48448,16.79595 -21.86147,26.07645 -35.15618,27.37773 -2.97207,0.30024 -5.99484,0.51525 -8.87575,1.34696 8.82186,-7.29556 18.66252,-17.2502 20.53797,-19.9617 7.31337,-10.57358 5.5029,-15.94865 -9.81287,-29.13377 -6.95154,-5.98428 -15.15641,-13.30919 -21.67495,-19.34946 -5.61038,-5.18052 -11.3341,-10.23525 -17.07182,-15.27379 -1.45118,-1.28068 -5.3256,-4.49573 -8.61056,-7.14463 -3.28496,-2.64891 -8.21239,-6.6283 -10.949847,-8.84309 C 75.363924,137.25905 64.055265,129.55752 59.815387,130.11095 Z m 129.739403,53.0539 a 1.6322263,1.6322263 0 0 1 1.63237,1.63237 1.6322263,1.6322263 0 0 1 -1.63237,1.63237 1.6322263,1.6322263 0 0 1 -1.63237,-1.63237 1.6322263,1.6322263 0 0 1 1.63237,-1.63237 z m -35.46849,13.96385 c -11.06767,-10.15428 -22.26454,-20.15851 -33.71816,-29.87635 -1.69194,-1.86209 -13.40015,-9.93878 -11.6271,-13.4506 0.42431,-0.27976 1.75067,0.75042 1.75067,0.75042 3.10927,1.3328 6.7579,4.34289 7.98056,5.39301 -1.1887,-1.64622 -2.62399,-3.09901 -4.01668,-4.57095 -8.63463,-9.08405 -11.20546,-16.83177 -5.03367,-15.16987 3.3678,0.90685 4.01173,1.52395 26.03746,24.95203 3.52589,3.75038 4.70431,4.83473 6.88304,6.73408 -7.34277,-9.28737 -15.13537,-18.22292 -22.99372,-27.07599 -7.50963,-8.38715 -11.00755,-14.88308 -10.0559,-18.6747 0.80944,-3.22509 7.06119,-0.39252 11.67227,5.28852 7.08999,8.73517 18.97089,24.16669 21.80221,28.31779 1.26965,1.86148 2.98499,4.2804 3.81188,5.37539 2.61472,3.46246 9.12211,14.51329 12.0752,20.50608 1.94811,3.43346 2.85236,5.02704 2.81588,8.75989 -0.0818,8.36833 -0.85244,8.65446 -7.38396,2.74125 z" />
    <path
       id="path7"
       style="fill:#316b29;fill-opacity:1;stroke-width:0.365457"
       d="m 268.73582,138.25477 c -7.63656,0.13094 -15.52955,2.5069 -23.10232,7.16639 -6.1812,3.80327 -6.24931,3.81653 -23.96742,4.7645 -20.63459,1.10401 -39.3208,2.87326 -41.24883,3.90512 -0.23777,0.12725 -0.71307,0.38115 -0.71307,0.38115 0,0 0.42306,0.23711 0.63455,0.35547 2.10893,1.18021 19.66823,4.37923 39.6828,7.22991 15.1773,2.16172 24.58635,3.71099 26.92033,4.43188 1.2961,0.40032 5.92347,1.62012 10.28349,2.71095 11.35558,2.84103 14.58159,4.75968 16.46484,9.79311 2.53836,6.78438 -0.74621,10.91436 -11.82382,14.8674 -16.06814,5.73389 -23.32062,10.54903 -31.5528,20.94954 -16.14549,20.39815 -17.11583,51.60053 -2.2941,73.76596 3.88849,5.81512 4.56168,5.97125 3.31267,1.38188 -4.86964,-17.89301 -3.2164,-24.44299 -2.16705,-17.24144 2.91452,20.00196 53.27308,58.18334 76.73957,58.18334 2.68648,0 4.55007,1.02534 7.67389,2.46256 3.80954,1.7527 12.47152,11.04655 14.03013,13.11506 10.9485,14.48517 19.61089,27.25374 22.77041,45.81918 l 0.20414,0.91364 0.88794,-1.9836 c 14.32348,-31.98671 3.0003,-100.90307 -21.4913,-130.8051 -5.98738,-7.31005 -8.68515,-10.20343 -12.90592,-13.84311 -12.70247,-10.95368 -21.70852,-15.05615 -33.09743,-15.07511 -9.49944,-0.0159 -14.81574,2.00596 -20.75111,7.89159 l -2.66098,2.63885 c -5.95799,-9.10754 5.82625,-17.63417 17.74751,-23.49704 18.05632,-8.88007 26.68035,-19.38172 27.47281,-33.45432 0.30041,-5.33473 0.42944,-5.41517 2.57676,-1.60101 3.99037,7.08788 4.55888,9.20184 4.56108,16.95021 0.004,15.54038 -7.63104,20.83106 -6.8252,20.83106 0.65543,0 3.47028,-1.70539 5.1371,-4.25985 3.64259,-5.58245 5.5303,-9.37373 5.2256,-17.10868 2.68005,3.52023 1.64523,14.42417 0.22699,22.33999 -0.56705,3.16494 -1.27764,5.10925 -1.2791,5.17137 -0.01,0.46607 1.02648,-0.77045 2.59746,-3.09854 8.0831,-11.97865 6.48691,-26.76839 -4.67029,-43.27812 -1.2458,-1.84345 -4.0758,-6.96399 -3.77662,-6.73383 11.77141,9.05604 19.91526,16.19414 33.51855,12.64467 2.56521,-0.62805 6.5753,-1.67902 8.32629,-3.69597 -16.64446,3.34521 -22.10544,0.4863 -37.58427,-12.04866 -1.56033,-1.26358 -6.77577,-7.39532 -7.3741,-8.66962 -1.47893,-3.14978 -7.15625,-10.39795 -10.75101,-13.72605 -7.74511,-7.17061 -17.13974,-10.71306 -26.95817,-10.54473 z m -2.4547,4.5625 c 8.18798,-0.18468 16.93237,2.01714 23.21652,6.67388 3.78542,2.80512 10.10443,9.60559 9.42194,10.14001 -0.40753,0.31911 -6.60134,0.99747 -11.01439,1.2063 -5.78802,0.27388 -6.09995,0.47068 -2.19275,1.38331 19.87286,4.64178 17.17685,31.56434 -4.40975,44.03901 -5.65439,3.26761 -10.32959,5.86659 -10.554,5.86659 -1.26946,0 -8.4008,4.93638 -12.12718,8.3948 -13.31987,13.4613 -4.95492,25.30537 -1.30837,28.50708 l -0.93363,3.38548 c -3.07834,11.06448 -2.90267,24.67548 4.57821,38.21597 3.11465,5.63756 -6.98698,-3.48333 -13.09721,-8.87733 -16.76947,-14.80374 -20.09747,-41.47612 -12.82883,-55.05768 0.82602,-1.54346 -0.35652,-1.64535 -3.26984,3.28055 -3.4462,5.82688 -7.59316,16.29373 -6.38409,7.00221 1.94528,-15.83692 17.00057,-31.31419 37.16814,-38.21025 8.90384,-3.19173 16.69132,-7.21581 20.04589,-14.82529 3.77728,-12.16979 -11.13896,-20.06974 -21.2736,-20.97095 -2.11051,-0.32021 -5.8265,-1.07201 -8.25776,-1.67098 -2.44982,-0.60354 -4.71672,-0.97573 -5.085,-0.83441 -1.36353,0.52324 -0.0878,-0.68132 1.42115,-1.34191 2.36288,-1.03441 4.76516,-1.26086 6.54611,-0.61671 3.79724,1.37343 6.02921,1.0496 8.25419,-1.19773 l 1.41829,-1.43185 1.41472,0.19986 c 0.77811,0.11002 2.71465,0.43368 4.30411,0.71878 1.58946,0.28511 2.93863,0.46969 2.99789,0.41043 0.24707,-0.24707 -7.70738,-5.86128 -9.46191,-6.67816 -2.95264,-1.37469 -6.91298,-1.2772 -9.90232,0.2434 -3.68278,1.87335 -10.18045,1.63937 -8.56398,-0.30835 4.05837,-4.89004 11.68946,-7.46137 19.87745,-7.64606 z m -6.52755,9.76742 a 1.7575045,1.7575045 0 0 1 1.75733,1.75733 1.7575045,1.7575045 0 0 1 -1.75733,1.75734 1.7575045,1.7575045 0 0 1 -1.75805,-1.75734 1.7575045,1.7575045 0 0 1 1.75805,-1.75733 z m 22.30502,83.62901 c 14.12696,-0.23365 32.44446,10.93884 46.39664,31.65202 6.06868,9.00946 14.32114,26.82523 12.95659,27.97103 -0.33484,0.0297 -3.03003,-5.44396 -3.53251,-6.23347 -1.98756,-3.68149 -2.83627,-4.72969 -6.36552,-7.85733 -1.34072,-1.18815 -1.2802,-1.02124 0.7302,2.01001 2.85939,4.31135 6.53277,13.23005 8.54827,20.75469 0.6842,2.55438 1.5012,5.36393 1.81587,6.24346 1.02561,2.86678 0.4733,2.57838 -2.18561,-1.14206 -3.84265,-5.37675 -11.62617,-12.4207 -15.42414,-15.64827 -3.49865,-2.9732 -6.62648,-5.25024 -11.86308,-8.1978 -0.89375,-0.50307 2.67583,3.63315 4.83302,6.03004 17.62614,19.58469 20.98439,31.64526 27.06881,49.29389 0.34818,1.02039 2.62321,8.74486 0.17559,6.03147 -0.79018,-0.87599 -4.97646,-11.87086 -6.59393,-14.39416 -7.37112,-11.49913 -16.72115,-21.12266 -30.88756,-31.78906 -1.7085,-1.2864 -4.09311,-3.09739 -5.29912,-4.02431 -4.14632,-3.1543 -7.88239,-6.13072 -12.18572,-9.50331 -4.77389,-3.74139 -3.31386,-2.84306 2.01073,2.99075 5.61226,6.149 11.75087,13.16908 16.23858,18.57122 6.82795,8.21922 13.39189,17.7254 12.48051,18.07513 -0.30184,0.11583 -1.68995,-1.27315 -2.82945,-2.59674 -6.79556,-7.89353 -52.0341,-37.43809 -52.1069,-66.23982 -0.0111,-4.38477 -0.38603,-4.48138 -1.46326,-0.37831 -0.43927,1.67316 -0.70193,3.90209 -0.70521,5.9808 -0.005,3.5618 0.13657,4.83623 -0.808,4.95865 -0.74832,0.097 -1.56902,-1.23224 -2.14136,-3.12494 -0.21875,-0.72341 -0.10925,-9.00899 0.76447,-12.33775 3.00182,-11.43664 10.70627,-16.93595 20.37209,-17.09583 z" />
    <path
       id="path4"
       style="fill:#316b29;fill-opacity:1;stroke-width:0.365457"
       d="m 234.41868,401.88655 c -7.29345,-14.96008 10.69996,-30.26823 38.77661,-32.98977 20.49689,-1.98682 36.82075,-12.19678 43.65963,-27.30743 0.99352,-2.19522 1.14848,-2.26546 2.16018,-0.97929 3.93587,5.00365 -5.54495,21.16843 -16.88805,28.79409 -8.94422,6.01295 -14.85494,7.79775 -31.67268,9.56385 -22.50475,2.36332 -34.67464,10.26344 -34.71409,22.53475 -0.006,1.85949 -0.52822,2.01116 -1.3216,0.3838 z m 76.42394,-67.35703 c -0.75547,0.0826 -2.01111,0.55844 -3.66885,1.46825 -3.43343,1.88438 -12.36047,4.51448 -18.99449,5.5304 -22.9838,3.51969 -42.64304,-4.14434 -66.34975,-1.15633 -18.13531,2.2858 -36.29462,11.81213 -44.77349,24.12089 -12.36391,17.94867 -5.50184,42.18999 12.61398,44.55936 8.13735,1.06428 13.45042,-2.81276 14.7672,-9.65785 2.1141,-10.98974 -8.99669,-15.13788 -13.97933,-10.42024 -2.58976,2.45203 -4.23049,6.15881 -0.53683,10.02697 1.67208,1.75107 6.9391,0.99448 4.83458,-0.44094 -6.52236,-4.44866 3.06456,-10.4984 3.58388,-2.3298 0.089,1.40067 0.19785,4.99805 -2.72411,6.64138 -7.65013,4.30248 -16.4098,-5.82091 -12.95189,-16.97038 4.34547,-14.01118 23.8013,-27.42561 45.03261,-31.04886 11.20297,-1.91186 16.27816,-2.42798 25.54417,-2.59889 14.4037,-0.26568 21.12337,-0.38404 27.99529,-1.99574 12.49405,-2.93026 20.22522,-4.50731 28.75763,-13.06295 1.97758,-1.84979 2.10852,-2.80304 0.8494,-2.66527 z m -97.31901,67.36025 c -11.61931,-16.67927 0.80036,-34.68309 21.6573,-42.34821 17.03512,-6.26056 28.59013,-0.64588 45.66437,-3.93503 7.42303,-1.42997 14.35892,-3.80745 21.11967,-7.2394 6.78252,-3.443 7.50391,-3.50294 3.50108,-0.29092 -13.56862,10.88795 -21.68044,13.79274 -43.41718,15.54744 -22.33015,1.8026 -36.58393,8.06039 -44.20136,19.4056 -6.41726,9.5577 -1.95827,22.2563 -4.32388,18.86052 z m 71.00086,-12.01038 c -10.85551,-1.13147 -12.817,-2.24184 -5.70392,-3.2289 22.92328,-3.18101 39.33901,-15.70999 45.5131,-34.73698 1.27401,-3.92616 1.52703,-4.2677 2.32585,-3.13955 5.09701,7.19834 -1.01371,23.96229 -11.88314,32.59983 -7.50843,5.96667 -20.24746,9.54837 -30.25189,8.5056 z M 153.68441,377.25491 c -1.66998,-6.01817 -0.17513,-10.54949 6.00209,-15.24452 4.79819,-3.6469 12.26663,-7.87744 13.05687,-7.21145 0.72826,0.61376 -1.69301,3.47839 -5.32346,6.93499 -6.86156,6.53301 -9.19578,10.05196 -9.33928,19.32479 -0.0601,3.88262 -3.49122,-0.54245 -4.39622,-3.80381 z m -19.17894,-3.29215 c 0.006,-13.28735 7.65245,-27.33859 20.20309,-37.12451 9.2199,-7.18889 15.59806,-10.12748 29.68065,-13.67468 6.2259,-1.56821 12.69113,-2.01033 19.94342,-1.58164 5.04654,0.29832 23.45222,2.18622 24.13197,1.18866 0.90254,-1.32452 -9.39376,-4.21862 -15.02155,-5.39972 -20.50427,-4.30323 -39.18993,-5.53594 -58.96034,3.36626 -4.31202,2.15899 -4.90399,1.89574 -1.82203,-0.81026 12.62582,-11.08562 38.24278,-14.83824 59.7494,-8.75268 7.62615,2.15791 18.17636,6.98022 20.95298,8.04414 5.78762,2.21767 28.35758,10.31741 37.45677,11.30688 5.71743,0.64584 11.427,1.36093 17.17648,1.65436 2.51252,0.11526 5.61395,0.3492 6.8994,0.41263 1.58392,0.0782 3.49915,-0.20742 2.72795,0.60074 -3.54394,3.71377 -32.04968,4.54148 -45.25942,2.09865 -3.50916,-0.56585 -7.06241,-0.79629 -10.59826,-1.13852 -10.2834,-1.00108 -37.12036,-0.71966 -44.40304,0.46562 -29.71269,4.83584 -48.8878,16.76764 -59.47223,37.00688 -2.98787,5.71329 -3.38682,5.98874 -3.38524,2.33719 z m 140.51711,-46.92457 c -40.53674,-5.51399 -87.44735,-36.50719 -79.44077,-52.48543 1.28693,-2.56824 1.57478,-2.42397 2.33036,1.16792 2.61292,12.42141 34.18448,33.66007 66.67138,45.79689 8.60964,3.2165 26.57004,6.29135 15.55543,6.04979 -0.80401,-0.0177 -3.10639,-0.25576 -5.1164,-0.52917 z" />
  </g>
</svg>
