<?xml version="1.0" encoding="UTF-8" standalone="no"?>
<!-- Created with Inkscape (http://www.inkscape.org/) -->

<svg
   version="1.1"
   id="svg1"
   viewBox="0 0 820.88971 801.03015"
   sodipodi:docname="dgra.svg"
   inkscape:version="1.1.2 (0a00cf5339, 2022-02-04)"
   xmlns:inkscape="http://www.inkscape.org/namespaces/inkscape"
   xmlns:sodipodi="http://sodipodi.sourceforge.net/DTD/sodipodi-0.dtd"
   xmlns="http://www.w3.org/2000/svg"
   xmlns:svg="http://www.w3.org/2000/svg">
  <defs
     id="defs1" />
  <sodipodi:namedview
     id="namedview1"
     pagecolor="#ffffff"
     bordercolor="#000000"
     borderopacity="0.25"
     inkscape:showpageshadow="2"
     inkscape:pageopacity="0.0"
     inkscape:pagecheckerboard="true"
     inkscape:deskcolor="#d1d1d1"
     inkscape:zoom="0.94873047"
     inkscape:cx="338.34689"
     inkscape:cy="465.88574"
     inkscape:window-width="1880"
     inkscape:window-height="1051"
     inkscape:window-x="0"
     inkscape:window-y="0"
     inkscape:window-maximized="1"
     inkscape:current-layer="g1"
     inkscape:pageshadow="2"
     showgrid="false" />
  <g
     inkscape:groupmode="layer"
     inkscape:label="Image"
     id="g1"
     transform="translate(-57.774733,-116.48438)">
    <path
       id="path14"
       d="m 514.37109,116.48438 c -87.49883,0 -167.55379,31.90963 -229.32031,84.6289 4.03211,5.27747 8.01859,10.58812 11.95117,15.93945 58.37784,-50.18317 134.27534,-80.56835 217.36914,-80.56835 43.64247,0 85.27209,8.45049 123.46485,23.6621 2.69394,0.0308 5.38958,0.053 8.07617,0.25586 22.18489,1.54056 43.73497,9.77515 61.68164,22.83399 9.7228,6.96854 18.18177,15.54331 25.78711,24.74023 5.20543,6.39338 10.3354,12.8789 14.79883,19.82032 2.02159,2.98111 3.47853,6.30899 5.64843,9.19335 1.6236,2.03798 3.29102,4.04569 4.96094,6.04883 2.52948,2.72182 4.9913,5.50322 7.42969,8.3086 0.49264,0.51099 0.93883,1.06474 1.44141,1.5664 5.36931,4.66171 11.00198,9.01631 16.66992,13.3086 7.92892,5.98847 16.10099,11.81816 25.19531,15.91796 1.83101,0.83193 3.71104,1.54084 5.62695,2.13477 C 752.79537,183.61759 641.38782,116.48437 514.37109,116.48438 Z m 322.80664,209.38085 c -5.10222,1.02269 -10.25106,1.78533 -15.46093,1.90625 -1.8698,0.0573 -3.73514,-0.0457 -5.60157,-0.13086 20.41394,43.20043 31.87305,91.47484 31.87305,142.46094 0,23.75497 -2.51934,46.91113 -7.23047,69.25586 2.45421,4.55188 4.79659,9.16254 7.03516,13.81836 2.26851,4.73664 4.39326,9.5399 6.4668,14.36328 8.87412,-30.96948 13.72851,-63.63115 13.72851,-97.4375 0,-51.38164 -11.07041,-100.16741 -30.81055,-144.23633 z m -671.68359,86.70508 c -3.07127,18.73289 -4.74023,37.93442 -4.74023,57.53125 0,11.7673 0.60533,23.39365 1.73047,34.86719 6.48819,-2.49409 12.98111,-4.97458 19.48242,-7.43359 -0.73647,-9.05596 -1.21289,-18.18653 -1.21289,-27.4336 0,-14.5198 1.02866,-28.78997 2.82421,-42.81836 -2.41735,-3.01603 -4.01399,-6.69107 -4.16406,-10.57226 -4.72175,-0.75961 -9.36038,-2.08458 -13.73047,-4.03516 -0.0654,-0.0303 -0.12411,-0.0749 -0.18945,-0.10547 z m 60.4375,253.36914 c -1.11534,1.23563 -2.33043,2.37549 -3.56445,3.49219 17.21258,25.15462 37.6223,47.92657 60.58789,67.83984 4.07545,-5.23638 8.46034,-10.20061 13.11914,-14.92578 -17.76758,-15.38708 -33.92977,-32.56966 -48.11133,-51.35351 -1.81845,0.54233 -3.67428,0.94848 -5.58789,1.04297 -6.02316,0.40061 -12.10803,-1.91786 -16.44336,-6.09571 z m 248.33789,135.30078 c -0.28257,0.13933 -0.60144,0.29039 -0.86133,0.41797 -8.89979,4.46204 -17.36138,9.77241 -25.32226,15.75586 6.3875,1.21375 12.83802,2.23883 19.34179,3.10352 3.96845,-6.65823 8.78245,-12.80084 14.14258,-18.41797 -2.44849,-0.23856 -4.86815,-0.56825 -7.30078,-0.85938 z"
       sodipodi:nodetypes="sccsccccccccccccscccscccsccsccsccccccccccccccccc"
       style="fill:#ffffff" />
    <path
       id="path12"
       style="fill:#ffffff;stroke-width:1.08953"
       d="m 63.358573,153.7706 c -3.867199,0.50478 -5.58384,3.5195 -5.58384,8.80561 0,19.74262 14.651309,33.08283 79.535667,72.42606 5.6928,3.45189 15.00828,9.17728 20.70107,12.72111 5.69279,3.54384 17.45971,10.85703 26.14871,16.25145 29.2845,18.18084 54.24402,35.16925 51.6718,35.16925 -4.32547,0 -70.6384,-38.10682 -125.21505,-71.95365 -25.192004,-15.62333 -45.975589,-23.41755 -49.073535,-18.40496 -4.796884,7.76152 6.869223,26.13826 24.199481,38.11864 8.17467,5.65115 15.339884,9.00239 58.104704,27.18717 64.97394,27.62868 76.29007,32.67468 93.25481,41.58513 14.79687,7.77182 15.37926,8.4638 3.44095,4.08149 -4.94374,-1.81476 -15.11722,-5.50972 -22.60774,-8.2119 -7.49051,-2.70219 -21.70888,-8.27069 -31.59636,-12.37426 -9.88748,-4.10357 -24.10584,-9.91337 -31.59636,-12.9105 -7.49052,-2.99715 -20.97345,-8.62097 -29.96207,-12.49555 -42.543894,-18.3387 -57.485156,-18.40958 -46.885954,-0.22556 11.1087,19.05808 23.927484,24.17539 117.705384,47.003 18.96509,4.61651 62.74143,18.70357 58.5303,18.83481 -5.99183,0.18675 -54.43905,-10.53844 -113.54942,-25.13792 -9.17055,-2.20403 -38.46613,-12.64442 -45.958154,-2.29397 3.07713,18.77257 40.508264,28.77671 55.761794,29.63862 6.89128,0.61358 20.68164,1.30043 30.50683,2.71531 12.39199,1.78452 52.65363,8.41022 68.51482,10.45906 14.43399,1.86447 -11.95521,0.44607 -74.31145,-3.99636 -43.2559,-3.08167 -55.174,-0.44215 -44.80479,9.92705 12.28064,12.28064 26.05761,15.07475 59.62197,12.08911 23.76945,-2.11435 70.59683,-2.7751 72.69418,-2.76638 2.97556,0.0129 3.41601,0.24892 2.00882,1.07037 -2.4607,1.43644 -2.63957,0.20152 -16.17271,2.56636 -5.09355,0.89007 -17.84105,2.4104 -28.32777,3.37712 -53.10286,4.89522 -65.50878,9.0917 -53.21033,18.00064 9.69741,7.02477 24.91558,8.48239 41.2255,3.95167 5.09356,-1.41494 13.91875,-3.87248 19.61154,-5.46254 5.69279,-1.59006 16.89644,-4.1118 24.89745,-5.603 8.00103,-1.4912 15.84564,-2.95663 17.43248,-3.25582 7.07623,-1.3342 -10.53276,5.50259 -36.46308,14.1575 -42.36375,14.14 -46.53249,17.68591 -27.02118,22.96738 12.20578,3.30395 14.78958,2.55354 59.57727,-17.29841 8.8486,-3.9221 15.82422,-6.70386 15.50027,-6.17968 -1.05556,1.70792 -25.86427,16.91926 -37.22277,22.82267 -18.52674,9.62899 -22.31724,13.97167 -14.90017,17.07072 12.38294,5.17393 26.99089,-0.0673 50.49715,-18.12195 2.33445,-1.79304 3.81305,-2.93006 10.32926,-7.07556 -4.56005,5.46812 -9.21236,10.8681 -14.87889,15.25341 -22.15383,18.00936 -22.38768,18.26841 -18.84547,20.85854 6.6093,4.83282 24.23056,-1.79155 36.98443,-13.90214 6.34046,-6.02068 4.3384,-5.43018 -0.86822,4.1368 -25.18135,46.26994 -37.74649,44.56745 -81.87645,64.14394 -8.21397,3.6438 -18.96037,7.21412 -23.45468,8.98011 -4.49431,1.766 -14.30008,5.54875 -21.79059,8.40555 -34.80678,13.2749 -42.38772,17.0569 -50.68016,25.27624 -10.92617,10.8298 -6.41705,17.26828 12.00185,17.14093 14.27453,-0.0987 24.02728,-4.08514 57.47482,-23.49936 14.04902,-8.15459 50.0423,-27.10205 51.48454,-27.10205 0.49802,0 -4.8014,3.89649 -11.77842,8.66091 -6.97703,4.76441 -14.04736,9.62238 -15.71093,10.79529 -9.5962,6.76579 -34.7472,22.49598 -49.50763,30.96221 -34.88574,20.00962 -46.50153,37.24899 -28.38311,42.12777 15.51828,4.17864 32.12481,-6.00842 73.77734,-45.26656 13.77278,-12.98106 35.51715,-31.3478 32.05175,-27.07225 -9.24611,11.40766 -33.65375,37.39218 -55.68943,59.28786 -32.30527,32.10002 -38.2893,42.2168 -32.07942,54.22539 8.58373,16.59911 30.87454,-1.95737 67.70831,-56.36402 7.09961,-10.48672 16.74334,-24.12859 21.43096,-30.31531 2.91745,-3.88357 6.67545,-9.70606 9.14184,-13.01263 1.68993,1.68992 -26.52974,50.32814 -40.94248,70.56619 -17.85856,25.07658 -21.5198,37.39993 -13.4957,45.42402 v 0.002 c 2.94203,2.94204 4.57011,3.08935 9.82492,0.89376 12.46146,-5.20674 19.42585,-15.49192 36.89292,-54.49138 14.77272,-32.98371 21.7208,-47.66563 22.06723,-46.62634 1.05487,3.16461 -11.24552,37.35764 -23.04398,64.05881 -11.82457,26.76022 2.43366,41.21814 17.47078,17.7155 8.45492,-13.21481 18.90814,-64.74828 20.36697,-64.74828 1.58262,0 1.33904,2.54438 -2.54933,26.49345 -3.30549,20.35902 -2.163,26.603 4.84969,26.49557 11.05135,-0.16933 15.97996,-19.32099 19.26041,-74.85622 l 1.36617,-23.13974 3.34732,-0.45751 c 70.04381,-9.58578 110.48203,-38.58869 125.31295,-89.87343 5.10934,-17.64568 4.85951,-35.41309 1.72793,-53.51252 -9.24608,-57.6907 7.59296,-71.54278 113.27916,-93.18031 56.61258,-11.59052 41.87469,-15.28206 -25.60395,-6.41376 -11.38558,1.49634 -22.90736,2.97242 -25.60395,3.28136 -9.06314,1.03832 -13.1996,2.14366 -25.11664,3.15154 l -8.2268,0.69586 -7.94377,-7.12451 c -35.90126,-32.19197 -86.28514,-11.17306 -100.98578,42.1299 -1.5266,5.53528 -3.76651,12.92991 -4.9795,16.43232 l -2.20673,6.36908 9.08438,9.4823 c 4.99664,5.21528 12.02103,12.64466 15.6088,16.51106 l 6.52441,7.03087 0.87886,-12.52959 c 2.38172,-33.92838 11.06909,-52.48332 28.62143,-61.12432 l 6.99682,-3.44309 c 4.26053,0.48202 5.89066,2.891 10.93148,2.05139 5.04082,-0.8396 7.62458,-6.07966 7.62458,-6.07966 6.81481,-3.56482 7.32145,-2.97734 13.16586,0.004 6.9311,3.53598 6.63646,4.34762 -5.95624,16.37061 -20.04071,19.134 -23.56888,32.07459 -18.01768,66.08891 2.02791,12.42572 2.14454,15.34428 1.08953,27.2808 -4.06198,45.95877 -59.81953,71.35298 -96.19781,74.91367 -8.13248,0.82154 -16.40369,1.4099 -24.28672,3.68568 24.13925,-19.96282 51.06623,-47.20169 56.19803,-54.62119 20.01157,-28.93245 15.05758,-43.64026 -26.85094,-79.71867 -19.02149,-16.37478 -41.47247,-36.41793 -59.30915,-52.94593 -15.35169,-14.17544 -31.01349,-28.00669 -46.71359,-41.79367 -3.97088,-3.50429 -14.57246,-12.30163 -23.56108,-19.54982 -8.98862,-7.24821 -22.47155,-18.13704 -29.96206,-24.19736 -61.91322,-50.0918 -92.857094,-71.1655 -104.458667,-69.65116 z M 418.36437,298.94192 a 4.4662591,4.4662591 0 0 1 4.46665,4.46665 4.4662591,4.4662591 0 0 1 -4.46665,4.46664 4.4662591,4.4662591 0 0 1 -4.46664,-4.46664 4.4662591,4.4662591 0 0 1 4.46664,-4.46665 z m -97.05239,38.20927 c -30.28445,-27.78514 -60.92245,-55.15971 -92.26298,-81.75063 -4.62963,-5.09523 -36.66679,-27.19545 -31.81519,-36.80487 1.161,-0.7655 4.79033,2.05338 4.79033,2.05338 8.50791,3.64692 18.49164,11.88345 21.83721,14.7569 -3.25264,-4.50456 -7.18001,-8.47984 -10.99084,-12.50751 -23.62692,-24.85668 -30.66151,-46.05674 -13.77361,-41.50929 9.21527,2.48141 10.97729,4.16998 71.24626,68.27622 9.64788,10.26214 12.87238,13.22927 18.83406,18.42647 -20.09202,-25.41305 -41.41491,-49.86336 -62.91769,-74.08802 -20.5486,-22.94977 -30.11994,-40.72456 -27.51597,-51.09958 2.21488,-8.8248 19.32154,-1.07405 31.93882,14.47097 19.40035,23.90207 51.91005,66.12729 59.65738,77.48597 3.47412,5.09355 8.16782,11.71245 10.43044,14.70865 7.15466,9.47434 24.96081,39.71271 33.04135,56.11078 5.33062,9.39498 7.8049,13.75548 7.70508,23.96966 -0.22366,22.89828 -2.33252,23.68119 -20.2047,7.5009 z" />
    <path
       id="path7"
       style="fill:#ffffff"
       d="m 635.02734,176.05469 c -20.8959,0.35827 -42.49349,6.8596 -63.21484,19.60937 -16.9136,10.40689 -17.1,10.44319 -65.58203,13.03711 -56.4624,3.02089 -107.59347,7.8621 -112.86914,10.68555 -0.65062,0.3482 -1.95117,1.04297 -1.95117,1.04297 0,0 1.15763,0.6488 1.73632,0.97265 5.77065,3.22941 53.81816,11.98289 108.58399,19.78321 41.52963,5.91509 67.27563,10.15437 73.66211,12.12695 3.54648,1.0954 16.20836,4.43314 28.13867,7.41797 31.07228,7.77392 39.8996,13.0239 45.05273,26.79687 6.94572,18.56411 -2.04184,29.86497 -32.35351,40.68164 -43.96723,15.68964 -63.81219,28.86532 -86.33789,57.32422 -44.17889,55.81545 -46.83402,141.19446 -6.27735,201.84571 10.64008,15.91192 12.48212,16.33913 9.06446,3.78125 -13.32478,-48.96062 -8.80103,-66.88333 -5.92969,-47.17774 7.97499,54.73135 145.77108,159.20703 209.98242,159.20703 7.35098,0 12.45034,2.80562 20.99805,6.73828 10.42402,4.79592 34.1258,30.22667 38.39062,35.88672 29.95836,39.63576 53.66128,74.57442 62.30664,125.375 l 0.5586,2.5 2.42969,-5.42773 c 39.1933,-87.52522 8.20969,-276.10099 -58.80664,-357.92188 -16.38325,-20.00246 -23.76515,-27.91962 -35.31446,-37.8789 -34.75774,-29.97252 -59.401,-41.1981 -90.56445,-41.25 -25.99331,-0.0433 -40.54029,5.48891 -56.78125,21.59375 l -7.28125,7.2207 c -16.30281,-24.92095 15.94236,-48.25237 48.5625,-64.29492 49.40751,-24.29856 73.00544,-53.0342 75.17383,-91.54102 0.82201,-14.59745 1.17509,-14.81753 7.05078,-4.38086 10.91885,19.39455 12.47447,25.17899 12.48047,46.38086 0.0119,42.52312 -20.88079,57 -18.67578,57 1.79346,0 9.49574,-4.66645 14.05664,-11.65625 9.96722,-15.27524 15.13256,-25.6493 14.29882,-46.81445 7.33341,9.63239 4.50183,39.46885 0.6211,61.12891 -1.55161,8.66021 -3.496,13.98043 -3.5,14.15039 -0.0273,1.27531 2.80874,-2.10815 7.10742,-8.47852 22.1178,-32.77716 17.75012,-73.24633 -12.7793,-118.42187 -3.40887,-5.04423 -11.15261,-19.05558 -10.33398,-18.42578 32.21013,24.78001 54.4941,44.31201 91.7168,34.5996 7.01916,-1.71854 17.99197,-4.59431 22.7832,-10.11328 -45.54421,9.15349 -60.48709,1.33068 -102.8418,-32.96875 -4.26951,-3.45751 -18.54053,-20.23579 -20.17773,-23.72265 -4.04679,-8.61875 -19.58165,-28.4519 -29.41797,-37.5586 -21.19295,-19.62093 -46.89947,-29.31414 -73.76563,-28.85351 z m -6.71679,12.48437 c 22.40478,-0.50536 46.33204,5.51946 63.52734,18.26172 10.35806,7.67565 27.64873,26.28375 25.78125,27.7461 -1.11512,0.87319 -18.06326,2.72938 -30.13867,3.30078 -15.83773,0.74943 -16.69127,1.28795 -6,3.78515 54.37806,12.7013 47.001,86.36949 -12.06641,120.50391 -15.4721,8.94115 -28.26484,16.05273 -28.8789,16.05273 -3.47363,0 -22.98709,13.50743 -33.1836,22.97071 -36.44712,36.83411 -13.55813,69.24305 -3.58008,78.0039 l -2.55468,9.26367 c -8.42328,30.27573 -7.94258,67.51949 12.52734,104.57032 8.52262,15.42605 -19.11846,-9.53144 -35.83789,-24.29102 -45.88627,-40.50747 -54.99268,-113.49107 -35.10352,-150.6543 2.26027,-4.22336 -0.97555,-4.50215 -8.94726,8.97657 -9.4298,15.9441 -20.77712,44.58453 -17.46875,19.16015 5.32285,-43.33456 46.51864,-85.68497 101.70312,-104.55468 24.36357,-8.73352 45.67245,-19.74459 54.85157,-40.56641 10.33575,-33.30021 -30.47955,-54.91683 -58.21094,-57.38281 -5.775,-0.8762 -15.94306,-2.93332 -22.5957,-4.57227 -6.70344,-1.65147 -12.90636,-2.66989 -13.91407,-2.2832 -3.73104,1.43174 -0.24029,-1.86433 3.88868,-3.67188 6.46556,-2.83045 13.03891,-3.4501 17.9121,-1.6875 10.39038,3.75813 16.49773,2.87202 22.58594,-3.27734 l 3.88086,-3.91797 3.8711,0.54688 c 2.12914,0.30103 7.4281,1.18666 11.77734,1.96679 4.34923,0.78014 8.04096,1.28521 8.20312,1.12305 0.67607,-0.67607 -21.0897,-16.03822 -25.89062,-18.27344 -8.07931,-3.76156 -18.91598,-3.4948 -27.0957,0.66602 -10.07719,5.12603 -27.85674,4.48581 -23.4336,-0.84375 11.10491,-13.3806 31.98585,-20.41652 54.39063,-20.92188 z m -17.86133,26.72656 a 4.8090577,4.8090577 0 0 1 4.80859,4.8086 4.8090577,4.8090577 0 0 1 -4.80859,4.80859 4.8090577,4.8090577 0 0 1 -4.81055,-4.80859 4.8090577,4.8090577 0 0 1 4.81055,-4.8086 z m 61.0332,228.83399 c 38.65561,-0.63936 88.77775,29.93193 126.95508,86.60937 16.60573,24.6526 39.18693,73.40185 35.45312,76.53711 -0.91623,0.0814 -8.29107,-14.89629 -9.66601,-17.05664 -5.43856,-10.07365 -7.76088,-12.94183 -17.41797,-21.5 -3.66861,-3.25114 -3.503,-2.79441 1.99805,5.5 7.82414,11.79713 17.8756,36.20138 23.39062,56.79102 1.87218,6.98956 4.10775,14.67733 4.96875,17.08398 2.80639,7.84435 1.29512,7.05523 -5.98047,-3.125 -10.51465,-14.71241 -31.81266,-33.98675 -42.20507,-42.81836 -9.57333,-8.13555 -18.13202,-14.36623 -32.46094,-22.43164 -2.44556,-1.37655 7.3219,9.9414 13.22461,16.5 48.2304,53.58957 57.41955,86.5909 74.06836,134.88282 0.95271,2.7921 7.1779,23.92855 0.48047,16.5039 -2.16219,-2.39696 -13.61708,-32.48222 -18.04297,-39.38672 -20.16959,-31.46506 -45.75407,-57.79791 -84.51758,-86.98437 -4.675,-3.51997 -11.2,-8.47541 -14.5,-11.01172 -11.34556,-8.6311 -21.56856,-16.77549 -33.34375,-26.00391 -13.06281,-10.23755 -9.06773,-7.77946 5.50195,8.1836 15.35681,16.82548 32.15389,36.03455 44.4336,50.8164 18.68332,22.49027 36.64422,48.50202 34.15039,49.45899 -0.82592,0.31693 -4.62421,-3.48372 -7.74219,-7.10547 C 751.63577,663.9439 627.8496,583.10116 627.65039,504.29102 c -0.0303,-11.99806 -1.05629,-12.26241 -4.00391,-1.03516 -1.20198,4.57826 -1.92068,10.67725 -1.92968,16.36523 -0.0149,9.74615 0.37369,13.23338 -2.21094,13.56836 -2.04762,0.26538 -4.29328,-3.37179 -5.85938,-8.55078 -0.59858,-1.97948 -0.29894,-24.6513 2.0918,-33.75976 8.2139,-31.29405 29.29557,-46.34184 55.74414,-46.7793 z" />
    <path
       id="path4"
       style="fill:#ffffff"
       d="m 541.12539,897.43006 c -19.95706,-40.93525 29.27828,-82.82294 106.10441,-90.26988 56.08559,-5.43652 100.75259,-33.37402 119.4658,-74.7213 2.71857,-6.00675 3.14258,-6.19897 5.9109,-2.67962 10.76972,13.69148 -15.17265,57.92316 -46.21076,78.78923 -24.47407,16.45324 -40.64756,21.33698 -86.66594,26.16957 -61.57971,6.46675 -94.88016,28.08383 -94.98813,61.6618 -0.0164,5.08813 -1.44536,5.50312 -3.61628,1.0502 z M 750.24414,713.12109 c -2.06719,0.22619 -5.50299,1.52804 -10.03906,4.01758 -9.3949,5.15622 -33.82195,12.35295 -51.97461,15.13281 -62.89057,9.63092 -116.68409,-11.34016 -181.55274,-3.16406 -49.62366,6.25461 -99.31296,32.32152 -122.51367,66.00196 -33.83136,49.11293 -15.0547,115.44443 34.51563,121.92773 22.26621,2.91219 36.80434,-7.69654 40.40747,-26.42676 5.7848,-30.07122 -24.61763,-41.42178 -38.25163,-28.51289 -7.08638,6.70949 -11.57589,16.85234 -1.46892,27.43678 4.5753,4.79144 18.98745,2.72119 13.22884,-1.20654 -17.84713,-12.17284 8.38555,-28.72674 9.80657,-6.37501 0.24366,3.83262 0.54137,13.67616 -7.45398,18.17279 -20.93303,11.77287 -44.90212,-15.92776 -35.44023,-46.43603 11.89048,-38.3388 65.12745,-75.04468 123.22266,-84.95898 30.65468,-5.2314 44.54192,-6.64366 69.89648,-7.11133 39.41286,-0.72698 57.79987,-1.05087 76.60352,-5.46094 34.18746,-8.01807 55.34224,-12.33335 78.68945,-35.74414 5.41125,-5.06159 5.76954,-7.66994 2.32422,-7.29297 z M 483.95025,897.43888 c -31.79392,-45.63947 2.19,-94.90332 59.26083,-115.87738 46.61317,-17.13077 78.23115,-1.76733 124.95137,-10.76743 20.31164,-3.91281 39.2903,-10.4183 57.78973,-19.80914 18.55901,-9.42108 20.53295,-9.5851 9.57999,-0.79605 -37.12779,29.79268 -59.32415,37.74107 -118.80237,42.54244 -61.10198,4.93245 -100.10456,22.05564 -120.94814,53.09953 -17.55953,26.1527 -5.35841,60.89989 -11.83141,51.60803 z M 678.2298,864.57489 c -29.7039,-3.09604 -35.07112,-6.13434 -15.60761,-8.83524 62.72492,-8.70419 107.64328,-42.98725 124.53745,-95.05077 3.48606,-10.74314 4.17841,-11.67771 6.36422,-8.59076 13.94695,19.69682 -2.77381,65.568 -32.51584,89.2029 -20.54529,16.32659 -55.40308,26.12719 -82.77822,23.27387 z M 320.2123,830.03051 c -4.56957,-16.4675 -0.47921,-28.86653 16.42348,-41.71355 13.1293,-9.97903 33.56519,-21.55503 35.72752,-19.73268 1.99275,1.67943 -4.63258,9.51789 -14.56656,18.97619 -18.77531,17.87627 -25.1624,27.50517 -25.55509,52.87841 -0.16443,10.62402 -9.55301,-1.4843 -12.02935,-10.40837 z m -52.47931,-9.0083 c 0.0158,-36.35817 20.93938,-74.80655 55.28168,-101.58375 25.2284,-19.67095 42.68097,-27.71182 81.21513,-37.41802 17.03593,-4.2911 34.72673,-5.50086 54.57117,-4.32782 13.80884,0.81626 64.17229,5.98213 66.03228,3.25251 2.46964,-3.62428 -25.70412,-11.5434 -41.10345,-14.77525 -56.10583,-11.7749 -107.23537,-15.148 -161.33311,9.21111 -11.79898,5.90763 -13.41879,5.18729 -4.98563,-2.21712 34.54801,-30.33356 104.64367,-40.60186 163.49223,-23.94996 20.8674,5.90468 49.73595,19.09996 57.3336,22.01118 15.83665,6.0682 77.59481,28.23151 102.49291,30.939 15.64461,1.76721 31.26771,3.72391 47,4.52683 6.875,0.31539 15.36146,0.95551 18.87883,1.12908 4.33408,0.21387 9.57472,-0.56757 7.46449,1.64379 -9.69729,10.16201 -87.6975,12.42686 -123.84332,5.74255 -9.60209,-1.54834 -19.32484,-2.17889 -29,-3.11533 -28.13844,-2.73926 -101.57241,-1.96922 -121.5,1.27407 -81.30279,13.23231 -133.77161,45.88128 -162.73381,101.26188 -8.17568,15.63328 -9.26735,16.38698 -9.263,6.39524 z M 652.2298,692.62255 C 541.30915,677.53463 412.94771,592.72798 434.85612,549.00673 c 3.52141,-7.02746 4.30906,-6.6327 6.37655,3.19578 7.14974,33.98869 93.53894,92.104 182.4328,125.31399 23.55859,8.80129 72.70358,17.21503 42.56433,16.55403 -2.2,-0.0483 -8.5,-0.69984 -14,-1.44798 z" />
  </g>
</svg>
