<?xml version="1.0" encoding="UTF-8" standalone="no"?>
<!-- Created with Inkscape (http://www.inkscape.org/) -->

<svg
   version="1.1"
   id="svg1"
   width="519.79266"
   height="525.91168"
   viewBox="0 0 519.79266 525.91168"
   sodipodi:docname="dgra-hummingbird.svg"
   inkscape:version="1.1.2 (0a00cf5339, 2022-02-04)"
   inkscape:export-filename="/home/qmo/dev/dgra/assets/dgra-hummingbird.png"
   inkscape:export-xdpi="24.709999"
   inkscape:export-ydpi="24.709999"
   xmlns:inkscape="http://www.inkscape.org/namespaces/inkscape"
   xmlns:sodipodi="http://sodipodi.sourceforge.net/DTD/sodipodi-0.dtd"
   xmlns="http://www.w3.org/2000/svg"
   xmlns:svg="http://www.w3.org/2000/svg">
  <defs
     id="defs1" />
  <sodipodi:namedview
     id="namedview1"
     pagecolor="#ffffff"
     bordercolor="#000000"
     borderopacity="0.25"
     inkscape:showpageshadow="2"
     inkscape:pageopacity="0.0"
     inkscape:pagecheckerboard="true"
     inkscape:deskcolor="#d1d1d1"
     inkscape:zoom="0.94873047"
     inkscape:cx="222.40247"
     inkscape:cy="314.10396"
     inkscape:window-width="1880"
     inkscape:window-height="1051"
     inkscape:window-x="0"
     inkscape:window-y="0"
     inkscape:window-maximized="1"
     inkscape:current-layer="g1"
     inkscape:pageshadow="2"
     showgrid="false" />
  <g
     inkscape:groupmode="layer"
     inkscape:label="Image"
     id="g1"
     transform="translate(-57.774733,-139.19439)">
    <path
       id="path12"
       style="fill:#316b29;stroke-width:1.08953;fill-opacity:1"
       d="m 63.358573,153.7706 c -3.867199,0.50478 -5.58384,3.5195 -5.58384,8.80561 0,19.74262 14.651309,33.08283 79.535667,72.42606 5.6928,3.45189 15.00828,9.17728 20.70107,12.72111 5.69279,3.54384 17.45971,10.85703 26.14871,16.25145 29.2845,18.18084 54.24402,35.16925 51.6718,35.16925 -4.32547,0 -70.6384,-38.10682 -125.21505,-71.95365 -25.192004,-15.62333 -45.975589,-23.41755 -49.073535,-18.40496 -4.796884,7.76152 6.869223,26.13826 24.199481,38.11864 8.17467,5.65115 15.339884,9.00239 58.104704,27.18717 64.97394,27.62868 76.29007,32.67468 93.25481,41.58513 14.79687,7.77182 15.37926,8.4638 3.44095,4.08149 -4.94374,-1.81476 -15.11722,-5.50972 -22.60774,-8.2119 -7.49051,-2.70219 -21.70888,-8.27069 -31.59636,-12.37426 -9.88748,-4.10357 -24.10584,-9.91337 -31.59636,-12.9105 -7.49052,-2.99715 -20.97345,-8.62097 -29.96207,-12.49555 -42.543894,-18.3387 -57.485156,-18.40958 -46.885954,-0.22556 11.1087,19.05808 23.927484,24.17539 117.705384,47.003 18.96509,4.61651 62.74143,18.70357 58.5303,18.83481 -5.99183,0.18675 -54.43905,-10.53844 -113.54942,-25.13792 -9.17055,-2.20403 -38.46613,-12.64442 -45.958154,-2.29397 3.07713,18.77257 40.508264,28.77671 55.761794,29.63862 6.89128,0.61358 20.68164,1.30043 30.50683,2.71531 12.39199,1.78452 52.65363,8.41022 68.51482,10.45906 14.43399,1.86447 -11.95521,0.44607 -74.31145,-3.99636 -43.2559,-3.08167 -55.174,-0.44215 -44.80479,9.92705 12.28064,12.28064 26.05761,15.07475 59.62197,12.08911 23.76945,-2.11435 70.59683,-2.7751 72.69418,-2.76638 2.97556,0.0129 3.41601,0.24892 2.00882,1.07037 -2.4607,1.43644 -2.63957,0.20152 -16.17271,2.56636 -5.09355,0.89007 -17.84105,2.4104 -28.32777,3.37712 -53.10286,4.89522 -65.50878,9.0917 -53.21033,18.00064 9.69741,7.02477 24.91558,8.48239 41.2255,3.95167 5.09356,-1.41494 13.91875,-3.87248 19.61154,-5.46254 5.69279,-1.59006 16.89644,-4.1118 24.89745,-5.603 8.00103,-1.4912 15.84564,-2.95663 17.43248,-3.25582 7.07623,-1.3342 -10.53276,5.50259 -36.46308,14.1575 -42.36375,14.14 -46.53249,17.68591 -27.02118,22.96738 12.20578,3.30395 14.78958,2.55354 59.57727,-17.29841 8.8486,-3.9221 15.82422,-6.70386 15.50027,-6.17968 -1.05556,1.70792 -25.86427,16.91926 -37.22277,22.82267 -18.52674,9.62899 -22.31724,13.97167 -14.90017,17.07072 12.38294,5.17393 26.99089,-0.0673 50.49715,-18.12195 2.33445,-1.79304 3.81305,-2.93006 10.32926,-7.07556 -4.56005,5.46812 -9.21236,10.8681 -14.87889,15.25341 -22.15383,18.00936 -22.38768,18.26841 -18.84547,20.85854 6.6093,4.83282 24.23056,-1.79155 36.98443,-13.90214 6.34046,-6.02068 4.3384,-5.43018 -0.86822,4.1368 -25.18135,46.26994 -37.74649,44.56745 -81.87645,64.14394 -8.21397,3.6438 -18.96037,7.21412 -23.45468,8.98011 -4.49431,1.766 -14.30008,5.54875 -21.79059,8.40555 -34.80678,13.2749 -42.38772,17.0569 -50.68016,25.27624 -10.92617,10.8298 -6.41705,17.26828 12.00185,17.14093 14.27453,-0.0987 24.02728,-4.08514 57.47482,-23.49936 14.04902,-8.15459 50.0423,-27.10205 51.48454,-27.10205 0.49802,0 -4.8014,3.89649 -11.77842,8.66091 -6.97703,4.76441 -14.04736,9.62238 -15.71093,10.79529 -9.5962,6.76579 -34.7472,22.49598 -49.50763,30.96221 -34.88574,20.00962 -46.50153,37.24899 -28.38311,42.12777 15.51828,4.17864 32.12481,-6.00842 73.77734,-45.26656 13.77278,-12.98106 35.51715,-31.3478 32.05175,-27.07225 -9.24611,11.40766 -33.65375,37.39218 -55.68943,59.28786 -32.30527,32.10002 -38.2893,42.2168 -32.07942,54.22539 8.58373,16.59911 30.87454,-1.95737 67.70831,-56.36402 7.09961,-10.48672 16.74334,-24.12859 21.43096,-30.31531 2.91745,-3.88357 6.67545,-9.70606 9.14184,-13.01263 1.68993,1.68992 -26.52974,50.32814 -40.94248,70.56619 -17.85856,25.07658 -21.5198,37.39993 -13.4957,45.42402 v 0.002 c 2.94203,2.94204 4.57011,3.08935 9.82492,0.89376 12.46146,-5.20674 19.42585,-15.49192 36.89292,-54.49138 14.77272,-32.98371 21.7208,-47.66563 22.06723,-46.62634 1.05487,3.16461 -11.24552,37.35764 -23.04398,64.05881 -11.82457,26.76022 2.43366,41.21814 17.47078,17.7155 8.45492,-13.21481 18.90814,-64.74828 20.36697,-64.74828 1.58262,0 1.33904,2.54438 -2.54933,26.49345 -3.30549,20.35902 -2.163,26.603 4.84969,26.49557 11.05135,-0.16933 15.97996,-19.32099 19.26041,-74.85622 l 1.36617,-23.13974 3.34732,-0.45751 c 70.04381,-9.58578 110.48203,-38.58869 125.31295,-89.87343 5.10934,-17.64568 4.85951,-35.41309 1.72793,-53.51252 -9.24608,-57.6907 7.59296,-71.54278 113.27916,-93.18031 56.61258,-11.59052 41.87469,-15.28206 -25.60395,-6.41376 -11.38558,1.49634 -22.90736,2.97242 -25.60395,3.28136 -9.06314,1.03832 -13.1996,2.14366 -25.11664,3.15154 l -8.2268,0.69586 -7.94377,-7.12451 c -35.90126,-32.19197 -86.28514,-11.17306 -100.98578,42.1299 -1.5266,5.53528 -3.76651,12.92991 -4.9795,16.43232 l -2.20673,6.36908 9.08438,9.4823 c 4.99664,5.21528 12.02103,12.64466 15.6088,16.51106 l 6.52441,7.03087 0.87886,-12.52959 c 2.38172,-33.92838 11.06909,-52.48332 28.62143,-61.12432 l 6.99682,-3.44309 c 4.26053,0.48202 5.89066,2.891 10.93148,2.05139 5.04082,-0.8396 7.62458,-6.07966 7.62458,-6.07966 6.81481,-3.56482 7.32145,-2.97734 13.16586,0.004 6.9311,3.53598 6.63646,4.34762 -5.95624,16.37061 -20.04071,19.134 -23.56888,32.07459 -18.01768,66.08891 2.02791,12.42572 2.14454,15.34428 1.08953,27.2808 -4.06198,45.95877 -59.81953,71.35298 -96.19781,74.91367 -8.13248,0.82154 -16.40369,1.4099 -24.28672,3.68568 24.13925,-19.96282 51.06623,-47.20169 56.19803,-54.62119 20.01157,-28.93245 15.05758,-43.64026 -26.85094,-79.71867 -19.02149,-16.37478 -41.47247,-36.41793 -59.30915,-52.94593 -15.35169,-14.17544 -31.01349,-28.00669 -46.71359,-41.79367 -3.97088,-3.50429 -14.57246,-12.30163 -23.56108,-19.54982 -8.98862,-7.24821 -22.47155,-18.13704 -29.96206,-24.19736 -61.91322,-50.0918 -92.857094,-71.1655 -104.458667,-69.65116 z M 418.36437,298.94192 a 4.4662591,4.4662591 0 0 1 4.46665,4.46665 4.4662591,4.4662591 0 0 1 -4.46665,4.46664 4.4662591,4.4662591 0 0 1 -4.46664,-4.46664 4.4662591,4.4662591 0 0 1 4.46664,-4.46665 z m -97.05239,38.20927 c -30.28445,-27.78514 -60.92245,-55.15971 -92.26298,-81.75063 -4.62963,-5.09523 -36.66679,-27.19545 -31.81519,-36.80487 1.161,-0.7655 4.79033,2.05338 4.79033,2.05338 8.50791,3.64692 18.49164,11.88345 21.83721,14.7569 -3.25264,-4.50456 -7.18001,-8.47984 -10.99084,-12.50751 -23.62692,-24.85668 -30.66151,-46.05674 -13.77361,-41.50929 9.21527,2.48141 10.97729,4.16998 71.24626,68.27622 9.64788,10.26214 12.87238,13.22927 18.83406,18.42647 -20.09202,-25.41305 -41.41491,-49.86336 -62.91769,-74.08802 -20.5486,-22.94977 -30.11994,-40.72456 -27.51597,-51.09958 2.21488,-8.8248 19.32154,-1.07405 31.93882,14.47097 19.40035,23.90207 51.91005,66.12729 59.65738,77.48597 3.47412,5.09355 8.16782,11.71245 10.43044,14.70865 7.15466,9.47434 24.96081,39.71271 33.04135,56.11078 5.33062,9.39498 7.8049,13.75548 7.70508,23.96966 -0.22366,22.89828 -2.33252,23.68119 -20.2047,7.5009 z" />
  </g>
</svg>
